<?xml version="1.0" encoding="UTF-8" standalone="no"?>
<svg
   width="100%"
   height="100%"
   viewBox="0 0 1920 1080"
   version="1.1"
   xml:space="preserve"
   style="fill-rule:evenodd;clip-rule:evenodd;stroke-linejoin:round;stroke-miterlimit:2;"
   id="svg117"
   sodipodi:docname="img.svg"
   inkscape:version="1.2.1 (9c6d41e, 2022-07-14)"
   inkscape:export-filename="img.png"
   inkscape:export-xdpi="192"
   inkscape:export-ydpi="192"
   xmlns:inkscape="http://www.inkscape.org/namespaces/inkscape"
   xmlns:sodipodi="http://sodipodi.sourceforge.net/DTD/sodipodi-0.dtd"
   xmlns:xlink="http://www.w3.org/1999/xlink"
   xmlns="http://www.w3.org/2000/svg"
   xmlns:svg="http://www.w3.org/2000/svg"><defs
   id="defs121"><linearGradient
     inkscape:collect="always"
     id="linearGradient1098"><stop
       style="stop-color:#f9e1af;stop-opacity:1;"
       offset="0"
       id="stop1094" /><stop
       style="stop-color:#f38ba8;stop-opacity:1;"
       offset="1"
       id="stop1096" /></linearGradient><linearGradient
     inkscape:collect="always"
     xlink:href="#linearGradient1098"
     id="linearGradient1100"
     x1="903.36481"
     y1="561.1474"
     x2="1314.8285"
     y2="587.60138"
     gradientUnits="userSpaceOnUse" /></defs><sodipodi:namedview
   id="namedview119"
   pagecolor="#ffffff"
   bordercolor="#000000"
   borderopacity="0.25"
   inkscape:showpageshadow="2"
   inkscape:pageopacity="0.0"
   inkscape:pagecheckerboard="0"
   inkscape:deskcolor="#d1d1d1"
   showgrid="false"
   inkscape:zoom="0.70710678"
   inkscape:cx="943.28045"
   inkscape:cy="665.38748"
   inkscape:window-width="1878"
   inkscape:window-height="1008"
   inkscape:window-x="0"
   inkscape:window-y="0"
   inkscape:window-maximized="1"
   inkscape:current-layer="background" />
    <g
   id="background">
        <g
   id="fill"
   transform="matrix(0.946279,0,0,0.86747,72.8635,62.4578)"
   style="fill:#181825;fill-opacity:1">
            <rect
   x="-77"
   y="-72"
   width="2029"
   height="1245"
   style="fill:#181825;fill-opacity:1"
   id="rect2" />
        </g>
        <g
   id="g17">
            <path
   d="M656.5,826.6C650.5,824 646,816.2 646,808.5C646,802.9 654.4,789 655.7,792.5C655.8,793.1 660.5,800.4 666,808.8C671.5,817.2 676,824.5 676,825C676,827.8 661.8,828.9 656.5,826.6Z"
   style="fill:rgb(245,224,220);fill-rule:nonzero;"
   id="path5" />
            <path
   d="M1490.9,538.8C1487.9,534.8 1487.8,534.7 1490.4,537C1493,539.4 1495.6,543 1494.6,543C1494.4,543 1492.7,541.1 1490.9,538.8Z"
   style="fill:rgb(245,224,220);fill-rule:nonzero;"
   id="path7" />
            <path
   d="M616.1,519.3C611.9,507 611.7,506.7 610.3,508.6C609.2,510.2 609,509.9 609,506.1C609,500.7 612.2,495 615.3,495C617.4,495 617.5,495.4 617.8,509C617.9,516.7 617.9,523 617.7,523C617.6,523 616.8,521.3 616.1,519.3ZM571.5,375.6C573.2,374.4 573.1,373.5 568.2,354.4C561.8,329.1 557.3,307.3 556.1,294.5C555.5,289 555,272.1 554.9,257C554.7,241.9 554.3,228.4 553.9,227C553.5,225.6 552.9,222 552.6,219C552.1,214.4 552.9,216.1 557.4,229.5C560.3,238.3 566.1,254.1 570.3,264.5C578.4,284.8 584.6,303.9 588,318.5C591.2,331.9 598,365.8 598,367.9C598,369 598.7,370 599.5,370.4C600.3,370.7 601,371.6 601,372.3C601,373.3 598.8,373.9 592.8,374.3C588.2,374.7 582.9,375.4 581,376C579.1,376.5 575.7,377 573.6,377C570,377 569.8,376.9 571.5,375.6Z"
   style="fill:rgb(245,224,220);fill-rule:nonzero;"
   id="path9" />
            <path
   d="M1645.1,285.2C1644.4,273.3 1643.4,257.2 1643,249.5C1641.6,227.1 1641.8,207.4 1643.5,200C1644.4,196.4 1647.1,189 1649.5,183.5C1651.9,178 1654.6,170.2 1655.5,166.1C1656.4,162 1657.2,158.5 1657.4,158.3C1657.6,158.1 1658,161.5 1658.4,165.9C1658.7,170.3 1660,178.3 1661.1,183.7C1663.7,195.6 1663.3,211.5 1660,236.9C1658.2,251.1 1647.8,305.5 1646.8,306.6C1646.6,306.8 1645.8,297.2 1645.1,285.2Z"
   style="fill:rgb(245,224,220);fill-rule:nonzero;"
   id="path11" />
            <path
   d="M441.5,135.7C435.4,132.2 431.9,126.5 431.3,118.7C430.8,113 431,112 432.8,110.5C433.9,109.5 434.6,108.1 434.3,107.3C433.6,105.4 436.6,102.2 441.5,99.8C450.1,95.3 461.5,98.2 466.7,106.2C468.9,109.4 469.5,111.8 469.8,117.3C470.2,123.6 470.1,124.2 468.5,123.7C467.1,123.1 466.9,123.5 467.5,125.9C468.2,129.3 464.8,133.9 459.6,136.4C454.6,138.8 446.4,138.5 441.5,135.7ZM451.5,129C452.2,127.9 447.6,126.5 446,127.5C445.5,127.8 445.2,128.6 445.5,129.1C446.3,130.3 450.7,130.3 451.5,129ZM445,114C445,110.7 441.1,107.3 438.5,108.4C435,109.7 438.4,117 442.6,117C444.6,117 445,116.5 445,114Z"
   style="fill:rgb(245,224,220);fill-rule:nonzero;"
   id="path13" />
            <path
   d="M1328.5,18.9C1328.3,18.1 1327.2,13.6 1326.2,8.8L1324.3,-0L1331.1,-0L1330.4,9.8C1329.7,19.8 1329.4,21.3 1328.5,18.9Z"
   style="fill:rgb(245,224,220);fill-rule:nonzero;"
   id="path15" />
        </g>
        <g
   id="g101">
            <path
   d="M1910,1075.1C1901.6,1072.5 1896.5,1066.8 1895.4,1058.7C1893.8,1047.5 1903.1,1037 1914.7,1037C1920,1037 1920,1036.8 1920,1056.5C1920,1074.6 1920,1074.8 1917.8,1075.4C1915,1076.1 1913.2,1076 1910,1075.1Z"
   style="fill:rgb(235,160,172);fill-rule:nonzero;"
   id="path19" />
            <path
   d="M1205.9,1064.1C1198.2,1056.4 1206.4,1042 1216.2,1046.1C1219.6,1047.5 1222,1051.6 1222,1056C1222,1065.6 1212.3,1070.4 1205.9,1064.1Z"
   style="fill:rgb(235,160,172);fill-rule:nonzero;"
   id="path21" />
            <path
   d="M179.4,1061.2C169.2,1053 178.8,1037 190.6,1042.6C198.6,1046.4 199,1058.4 191.3,1061.9C187.7,1063.5 181.8,1063.2 179.4,1061.2Z"
   style="fill:rgb(235,160,172);fill-rule:nonzero;"
   id="path23" />
            <path
   d="M1155.6,1039.8C1155.4,1039.1 1154.5,1034.7 1153.7,1030C1152.8,1025.3 1151,1017 1149.6,1011.5C1142.7,983.1 1137.1,958.5 1136.5,953.5C1135.7,947.8 1135.8,947.8 1138.1,948.5C1139.4,948.9 1142.7,949.5 1145.5,949.9L1150.5,950.5L1151.6,969.5C1152.2,980 1153.5,997.1 1154.3,1007.5C1156.2,1030.9 1156.9,1041 1156.3,1041C1156.1,1041 1155.8,1040.4 1155.6,1039.8Z"
   style="fill:rgb(235,160,172);fill-rule:nonzero;"
   id="path25" />
            <path
   d="M1063.5,1029.5C1057.4,1023.5 1064.4,1014.9 1072.1,1019.1C1075.2,1020.7 1076.3,1024.6 1074.5,1027.9C1072.1,1032.7 1067.3,1033.4 1063.5,1029.5Z"
   style="fill:rgb(235,160,172);fill-rule:nonzero;"
   id="path27" />
            <path
   d="M703.2,987.5C698.6,981.7 699.7,971.4 705.3,968C715,962.1 725.1,970.7 721,981.4C720.4,983.1 719.6,983.8 718.5,983.4C717.7,983.1 717,983.3 717,983.9C717,984.5 717.6,985 718.3,985C718.9,985 718.2,986.2 716.7,987.5C712.7,991 705.9,991 703.2,987.5Z"
   style="fill:rgb(235,160,172);fill-rule:nonzero;"
   id="path29" />
            <path
   d="M520.3,977C517.5,975.8 516,973 516,968.6C516,960 527,957.1 532.4,964.3C534.1,966.6 534.2,967.4 533.1,971C531.4,976.8 526,979.3 520.3,977Z"
   style="fill:rgb(235,160,172);fill-rule:nonzero;"
   id="path31" />
            <path
   d="M1525.8,945.7C1525.3,944.7 1525,942 1525,939.7C1525,935.8 1522.5,914 1520,897C1517.6,879.8 1515.9,857.6 1514.8,827.3C1513.4,788.3 1514.1,777.6 1519.5,758.4C1521.5,751.3 1523.8,742.2 1524.6,738.1C1525.4,734 1526.2,730.5 1526.4,730.3C1526.6,730.1 1527.1,733 1527.5,736.7C1527.8,740.4 1529.3,750.7 1530.7,759.5C1533.5,777.7 1534.4,800.8 1533,821C1531.4,842.7 1529,888.8 1528.4,907.5C1527.6,934 1526.6,947.8 1525.8,945.7Z"
   style="fill:rgb(235,160,172);fill-rule:nonzero;"
   id="path33" />
            <path
   d="M1435.1,927.4C1432.4,923.9 1432.5,921.5 1435.5,918.5C1440,913.9 1447,916.5 1447.2,922.8C1447.4,929.7 1439.3,932.8 1435.1,927.4Z"
   style="fill:rgb(235,160,172);fill-rule:nonzero;"
   id="path35" />
            <path
   d="M350,913.3C345.8,904.3 338.7,887.1 333.5,873.3C330.2,864.6 329.6,862 330.6,861.6C332.5,860.9 332.3,859.1 330.3,858.3C329.3,857.9 328.2,857.2 327.7,856.6C325.5,853.4 310,800.8 310,796.4C310,795.1 310.8,793.9 311.9,793.5C312.9,793.2 314.6,792 315.6,790.9C317.5,788.8 317.4,788.8 314.6,786.3C312.8,784.8 310.9,784 309.5,784.2C307.3,784.7 307.2,784.3 306.6,774.1C306.3,768.3 306,758 306,751.4C306.1,744.7 305.8,737.4 305.4,735.1C304.4,728.8 305.6,730.2 308,738.3C309.2,742.2 312.3,750.9 315,757.5C326,785.1 329.1,795.3 335.1,824.5C336.1,829.5 338,838.5 339.3,844.7L341.7,855.8L338.8,856.4C334.8,857.2 335.5,860 340.3,862.3C342.3,863.2 344,864.3 344,864.8C344,865.7 345.8,875.7 350.4,900.5C352.3,910.9 353.7,919.6 353.6,919.8C353.4,920 351.8,917 350,913.3ZM330,819.5C330,818.7 329.6,818 329,818C328.5,818 328,818.7 328,819.5C328,820.3 328.5,821 329,821C329.6,821 330,820.3 330,819.5Z"
   style="fill:rgb(235,160,172);fill-rule:nonzero;"
   id="path37" />
            <path
   d="M122.1,855.1C117.7,850.7 120.8,843 126.9,843C132.6,843 135.7,849.2 132.3,853.8C129.7,857.3 124.9,857.9 122.1,855.1Z"
   style="fill:rgb(235,160,172);fill-rule:nonzero;"
   id="path39" />
            <path
   d="M211.6,835.3C209,829.9 203.3,819 199,811C181.4,778.4 172.2,758.4 157.5,721.5C148.6,699.1 144.5,684.8 143.6,673.5C143.3,669.7 142.7,663.1 142.4,659C142.1,654.9 141.2,648.8 140.4,645.5C139.7,642.3 139.2,639.4 139.4,639.2C139.6,639.1 142.5,644 145.8,650.2C149.1,656.4 154.2,665.8 157.2,671C165,684.6 170.6,699.2 181.5,735C186.8,752.3 196.3,782.3 202.6,801.5C208.9,820.8 214.7,838.4 215.5,840.8C216.3,843.1 216.7,845 216.6,845C216.4,845 214.2,840.6 211.6,835.3Z"
   style="fill:rgb(235,160,172);fill-rule:nonzero;"
   id="path41" />
            <path
   d="M1735.5,834.5C1731.8,830.9 1732.1,825.9 1736.1,822.6C1740.1,819.2 1743.5,819.3 1747.1,822.9C1750.8,826.6 1750.9,830.7 1747.5,834.4C1744.3,837.9 1738.9,838 1735.5,834.5Z"
   style="fill:rgb(235,160,172);fill-rule:nonzero;"
   id="path43" />
            <path
   d="M486.9,791.9C483,787.7 482.8,780.5 486.4,777.1C496,768.1 510.4,782.7 501.1,792.1C496.9,796.3 490.9,796.2 486.9,791.9Z"
   style="fill:rgb(235,160,172);fill-rule:nonzero;"
   id="path45" />
            <path
   d="M879,791.4C870.3,788.4 866.3,784.5 864,776.5C861.8,769 866.3,759.1 873.3,755.6C884,750.4 895.4,754.2 900.1,764.5C904.3,773.7 900.5,785.2 891.8,789.3C888,791 881.2,792.1 879,791.4ZM873,769.2C873,767.8 871.9,767.1 870.4,767.7C868.3,768.5 868.7,770 871,770C872.1,770 873,769.6 873,769.2Z"
   style="fill:rgb(235,160,172);fill-rule:nonzero;"
   id="path47" />
            <path
   d="M1900.5,701.8C1895.3,698.7 1894.3,691.9 1898.5,688C1906.3,680.7 1917.8,691.4 1910.8,699.4C1908.1,702.4 1903.4,703.5 1900.5,701.8Z"
   style="fill:rgb(235,160,172);fill-rule:nonzero;"
   id="path49" />
            <path
   d="M295.8,600.3C291.2,595 290.9,590.1 294.7,586.5C297.7,583.8 302.4,583.2 305.1,585.3C309.3,588.5 310.4,596.6 307,600C304.4,602.6 297.9,602.7 295.8,600.3Z"
   style="fill:rgb(235,160,172);fill-rule:nonzero;"
   id="path51" />
            <path
   d="M1705.4,560.1C1700.2,557.7 1698,554.6 1698,549.7C1698,542.5 1702.2,538 1709,538C1716.4,538 1721.6,544 1720.7,551.7C1719.8,560.1 1713.1,563.7 1705.4,560.1Z"
   style="fill:rgb(235,160,172);fill-rule:nonzero;"
   id="path53" />
            <path
   d="M1540.4,488.6C1537.9,486.1 1537,484.3 1537,481.9C1537,470.6 1551.4,466 1557.1,475.4C1560.5,481 1558.6,488.5 1553.3,490.9C1548.6,493.1 1544.1,492.3 1540.4,488.6Z"
   style="fill:rgb(235,160,172);fill-rule:nonzero;"
   id="path55" />
            <path
   d="M1759.1,442C1759,431.8 1758.6,406.9 1758.2,386.5C1757.8,366.2 1757.5,336 1757.6,319.5L1757.7,289.5L1761.2,271.5C1763.2,261.6 1765.1,250.6 1765.6,247C1766.4,239.8 1766.6,240.2 1768.9,253.5C1769.6,257.4 1771.4,265.5 1773,271.5C1776.6,285.6 1777.4,299.1 1776,323.5C1774,361.3 1771.6,383.4 1766.4,414C1765.1,422 1762.9,435.7 1761.6,444.5L1759.2,460.5L1759.1,442Z"
   style="fill:rgb(235,160,172);fill-rule:nonzero;"
   id="path57" />
            <path
   d="M1842.8,443.6C1838,441.2 1837.9,433.3 1842.5,431.2C1846.1,429.5 1847.3,429.7 1850.4,432.1C1856.9,437.2 1850.2,447.3 1842.8,443.6Z"
   style="fill:rgb(235,160,172);fill-rule:nonzero;"
   id="path59" />
            <path
   d="M88.6,423.6C80.6,420.6 76,413.9 76,405C76,391.3 89.8,382.2 102.1,387.8C110.7,391.7 114.5,397.8 113.7,406.8C112.8,419.1 99.9,427.7 88.6,423.6ZM84.8,402.8C84.5,402.1 83.7,401.5 83,401.5C82.3,401.5 81.5,402.1 81.3,402.8C81,403.5 81.7,404 83,404C84.3,404 85,403.5 84.8,402.8Z"
   style="fill:rgb(235,160,172);fill-rule:nonzero;"
   id="path61" />
            <path
   d="M469.6,366.9C467.7,365.4 467,363.9 467,361.4C467,354.5 474.6,351.5 479.5,356.5C482.4,359.3 483,364.6 480.4,363.6C478.5,362.9 475,365.6 475,367.7C475,369.6 472.7,369.3 469.6,366.9Z"
   style="fill:rgb(235,160,172);fill-rule:nonzero;"
   id="path63" />
            <path
   d="M1468.5,321.4C1460.8,313.1 1470.3,300 1480.3,305.1C1486.6,308.3 1488,316.2 1483.1,321.1C1480.7,323.5 1479.3,324 1475.5,324C1471.8,324 1470.4,323.5 1468.5,321.4Z"
   style="fill:rgb(235,160,172);fill-rule:nonzero;"
   id="path65" />
            <path
   d="M24.2,271.7C21,268.3 21.2,262.1 24.5,259C27.8,255.9 33.2,255.9 36.6,259.1C39.9,262.2 40,268.7 36.7,271.8C33.4,274.9 27.1,274.8 24.2,271.7Z"
   style="fill:rgb(235,160,172);fill-rule:nonzero;"
   id="path67" />
            <path
   d="M1283.1,241.4C1280.6,238.3 1280.4,235 1282.5,231.1C1286.4,223.4 1297,227 1297,236C1297,241.3 1294.3,244 1289.1,244C1286,244 1284.7,243.4 1283.1,241.4Z"
   style="fill:rgb(235,160,172);fill-rule:nonzero;"
   id="path69" />
            <path
   d="M1773.9,200.1C1767.3,193.4 1772.9,183.6 1782.3,185.4C1787.1,186.3 1789.5,189.3 1789.4,194.1C1789.1,202.7 1780,206.2 1773.9,200.1Z"
   style="fill:rgb(235,160,172);fill-rule:nonzero;"
   id="path71" />
            <path
   d="M1214.7,189.9C1210.4,187.4 1208.6,178.4 1211.6,174.1C1213.8,171 1219.1,168.9 1222.9,169.6C1226.4,170.3 1230.5,174.5 1231.4,178.2C1232.2,181.7 1230,187.2 1226.9,189.4C1224.3,191.2 1217.5,191.5 1214.7,189.9Z"
   style="fill:rgb(235,160,172);fill-rule:nonzero;"
   id="path73" />
            <path
   d="M1005,168.5C1005,167.7 1005.7,167 1006.5,167C1007.3,167 1008,166.7 1008,166.3C1008,165.8 1006.2,156.7 1003.9,146C1001.7,135.3 998.6,120 996.9,112C989.8,77.2 982.1,15.5 983.7,4.4L984.3,0L993.1,0C999.5,0 1002,0.3 1002,1.3C1002.1,1.9 1002.5,5.7 1003,9.5C1003.5,13.4 1004.4,35.6 1005,59C1005.6,82.4 1006.2,104.9 1006.5,109C1006.7,113.1 1007.1,123.7 1007.5,132.5C1007.9,141.3 1008.4,149.4 1008.5,150.5C1008.7,151.6 1008.9,155.8 1008.9,159.8C1009,165.5 1009.3,167 1010.5,167C1011.3,167 1012,167.7 1012,168.5C1012,169.5 1010.9,170 1008.5,170C1006.1,170 1005,169.5 1005,168.5Z"
   style="fill:rgb(235,160,172);fill-rule:nonzero;"
   id="path75" />
            <path
   d="M232,164C225.2,157.2 232.2,146.3 241.1,150C244.6,151.5 246,153.7 246,158C246,164.7 236.7,168.7 232,164Z"
   style="fill:rgb(235,160,172);fill-rule:nonzero;"
   id="path77" />
            <path
   d="M114.7,159.9C110.4,157.4 108.7,149.3 111.5,144.1C112.9,141.3 118.3,138 121.5,138C125,138 129.9,141.2 131.5,144.7C133.7,149.3 132.8,154.1 128.9,158C126.4,160.5 125.1,161 121.2,161C118.6,161 115.7,160.5 114.7,159.9ZM125.8,155.8C125.5,155.1 124.6,154.4 123.7,154.2C122.5,154 122.2,154.3 122.6,155.4C123.3,157.3 126.4,157.6 125.8,155.8Z"
   style="fill:rgb(235,160,172);fill-rule:nonzero;"
   id="path79" />
            <path
   d="M918,146C918,143.9 920.3,143.4 924.8,144.6C928.9,145.7 927.4,148 922.5,148C918.7,148 918,147.7 918,146Z"
   style="fill:rgb(235,160,172);fill-rule:nonzero;"
   id="path81" />
            <path
   d="M1461.3,147C1456.6,145.1 1454.3,134.9 1457.6,130.2C1459.3,127.7 1464,125 1466.5,125C1470.3,125 1474.8,128.2 1476.5,132.1C1480.9,141.8 1471.4,151.1 1461.3,147Z"
   style="fill:rgb(235,160,172);fill-rule:nonzero;"
   id="path83" />
            <path
   d="M1810.4,117.9C1805.7,116.5 1801,110.7 1801,106.4C1801,99.3 1805.5,95 1813,95C1820.5,95 1826.4,103.2 1824,110.4C1821.9,116.8 1816.5,119.8 1810.4,117.9Z"
   style="fill:rgb(235,160,172);fill-rule:nonzero;"
   id="path85" />
            <path
   d="M1116.2,100.4C1105.9,93.2 1112.2,76.1 1124.4,78.4C1133.9,80.2 1137,93.9 1129.3,100C1126.2,102.4 1119.4,102.7 1116.2,100.4Z"
   style="fill:rgb(235,160,172);fill-rule:nonzero;"
   id="path87" />
            <path
   d="M256.1,78.4C252.2,73.5 253.8,67.2 259.4,65C264.8,63 269.6,66 270.6,72.1C271.5,77.4 268.1,81 262.5,81C259,81 257.7,80.5 256.1,78.4Z"
   style="fill:rgb(235,160,172);fill-rule:nonzero;"
   id="path89" />
            <path
   d="M1618.5,75.5C1611.4,68.5 1621.4,57.6 1629.1,63.9C1630.9,65.3 1631.5,66.8 1631.5,70C1631.5,73.2 1630.9,74.7 1629.1,76.1C1625.9,78.8 1621.4,78.5 1618.5,75.5Z"
   style="fill:rgb(235,160,172);fill-rule:nonzero;"
   id="path91" />
            <path
   d="M606,59C599.3,52.3 604.8,42.1 613.5,45C615.4,45.6 617.7,47.1 618.5,48.3C620.6,51.4 620.4,56.6 618,59C615.3,61.7 608.7,61.7 606,59Z"
   style="fill:rgb(235,160,172);fill-rule:nonzero;"
   id="path93" />
            <path
   d="M53.1,51.1C50.2,48.2 49.5,43.4 51.5,40.4C54.7,35.5 62.4,34.9 65.5,39.3C67.8,42.6 67.4,48.5 64.8,51C61.9,53.6 55.7,53.7 53.1,51.1Z"
   style="fill:rgb(235,160,172);fill-rule:nonzero;"
   id="path95" />
            <path
   d="M1865,13.6C1864.7,13.3 1864.5,10.2 1864.6,6.8C1864.8,2 1865.2,0.4 1866.4,0.2C1867.6,-0.1 1867.9,0.5 1867.4,2.7C1867.2,4.2 1866.6,7.5 1866.2,9.8C1865.8,12.2 1865.3,13.9 1865,13.6Z"
   style="fill:rgb(235,160,172);fill-rule:nonzero;"
   id="path97" />
            <path
   d="M1222.1,11.4C1219.4,9.4 1216.8,3.8 1217.6,1.6C1218.1,0.3 1220.2,-0 1229.6,-0L1241,-0L1241,3C1241,4.8 1239.9,7.2 1238.2,9.1C1235.8,11.8 1234.5,12.4 1229.9,12.7C1225.9,13 1223.9,12.7 1222.1,11.4Z"
   style="fill:rgb(235,160,172);fill-rule:nonzero;"
   id="path99" />
        </g>
        <g
   id="g111">
            <path
   d="M464,1066.8C460.1,1051.3 459.2,1040.5 461,1031.7C461.7,1028.3 462.6,1020.6 463,1014.5C463.6,1003.3 463.8,1003.1 466.1,1011C466.8,1013.5 469.9,1021.6 473.1,1029C480.2,1046 481.4,1049.8 483.9,1064C487.1,1081.4 487.7,1080 476.6,1080L467.3,1080L464,1066.8Z"
   style="fill:rgb(250,179,135);fill-rule:nonzero;"
   id="path103" />
            <path
   d="M886.1,1029C878.3,1025.7 874,1019.3 874,1011C874,1001.7 879.6,993.5 887.9,990.5C895.3,987.9 901.8,989.1 907.6,994.2C912.5,998.5 914.2,1002.4 914.3,1009C914.3,1016.9 911,1022.6 904.1,1026.4C898.5,1029.4 890,1030.6 886.1,1029ZM895.4,1018C894.7,1017.3 893.8,1017.5 892.4,1018.5C890.8,1019.8 890.7,1020.1 892,1020.9C893.9,1022.2 897,1019.6 895.4,1018Z"
   style="fill:rgb(250,179,135);fill-rule:nonzero;"
   id="path105" />
            <path
   d="M1806,809.5C1806,721.1 1807.1,703.2 1815,665.5C1816.6,657.8 1818.7,647.2 1819.5,642C1820.4,636.8 1821.4,631.8 1821.8,631C1822.4,629.4 1822.5,628.1 1822.8,621.8C1822.9,619.7 1823.4,618 1823.8,618C1824.3,618 1825,625.3 1825.3,634.3C1825.7,643.2 1826.6,656.1 1827.4,663C1830.6,691.2 1830.3,703.9 1825.5,745C1823.3,764.4 1817.4,804.7 1815,817C1812.9,827.8 1808,861.4 1808,864.9C1808,866.9 1807.5,869.2 1807,870C1806.4,871 1806,849.9 1806,809.5ZM1819.4,760.4C1823.1,759 1818.9,753.3 1815.1,754.5C1812,755.4 1812.6,759 1816,760.3C1816.8,760.6 1817.6,760.9 1817.7,760.9C1817.8,761 1818.5,760.7 1819.4,760.4Z"
   style="fill:rgb(250,179,135);fill-rule:nonzero;"
   id="path107" />
            <path
   d="M176.1,201.4C174.8,195.6 167.6,170.4 158.5,140C150.6,113.3 138.8,67.3 135,48.2C132.9,37.3 131,18.3 131,7.2L131,-0.1L142.2,0.5L145.6,10C155.8,38.4 160.6,64 170,137.5C177.6,197.6 179.4,216.4 176.1,201.4ZM156,98C158.5,95.5 158.5,94.3 155.9,93.5C153.5,92.7 150,95.4 150,98.2C150,100.6 153.4,100.6 156,98Z"
   style="fill:rgb(250,179,135);fill-rule:nonzero;"
   id="path109" />
        </g>
    </g>
    <path
   id="mug"
   d="M859,953.1C842.5,950.1 819.1,941.5 800.4,931.6C760.7,910.5 712.4,863.6 678.1,813C647.1,767.3 630,725.5 628.4,692C627.7,677.4 629.2,659.6 632.1,649C636.7,631.9 650.6,608.4 663.9,595.1C688.3,570.7 709,558.1 729.9,554.9C743,552.9 743.9,553.3 756.7,566.7C769.6,580.3 769.6,580.4 759.5,585.4L753.7,588.3L744.6,587C723.2,584 714.6,584.7 705.5,590.6C697.4,595.7 692.5,601.6 688,611.5C680,629.3 678.7,631.3 669.9,640C660.4,649.2 658.8,651.8 657.1,659.8C655.4,667.7 655.8,674.9 658.1,682C660.5,689.5 672.5,713.4 674.8,715.2C676.5,716.7 676.6,717.2 672.9,705.2C671,698.9 670.8,696.6 671.3,687.2C672.8,661.2 685.4,637.4 704.7,624.3C713.3,618.5 722.6,614 725.9,614C726.9,614 728.1,613.5 728.6,613C729.2,612.4 734.4,611.9 740.3,611.9C756.8,611.8 763.7,614.4 786.8,629.3C800.4,638 809.2,642.6 818,645.6L823.5,647.5L818.5,647.8C809.7,648.4 802.2,645.2 785.1,633.7C763.1,618.9 748.2,615.3 730.3,620.1C717.9,623.4 709.7,628.3 699.4,638.5C686.9,650.9 681.5,661.6 679,678.8C676.8,693.9 678.7,707.6 685.5,724.6C700.9,762.8 725.2,796.7 765.6,836C788,857.8 804.2,869.6 827.8,881.5C839.1,887.1 848,890.3 856.9,892C860.3,892.6 862.8,893.7 863.7,895C865.4,897.4 869.2,897.6 871,895.5C872,894.3 874.7,894 882.9,894C907.8,894 929.2,883.3 941.5,864.6C949.1,852.9 954,836.7 954,822.8C954,816.7 954.3,815 955.4,815C956.2,815 957.2,814.5 957.6,813.9C958,813.1 957.6,813 956.1,813.5C953.8,814.2 953.9,814.4 952,806C949.3,793.6 944.7,783.8 935.5,770.5C928.2,760 926.5,755.3 928.1,749.5C928.7,747.3 929.7,744.7 930.2,743.7C931.1,741.9 931.2,741.9 933.1,743.9C934.1,745 935,746.7 935,747.6C935,750.2 939.5,758.3 948.4,771.8C953,778.8 957.3,785.5 957.9,786.8C958.8,788.6 963,800.6 963,801.5C963,801.6 961.7,801.5 960,801.2C957.7,800.9 957,801.2 957,802.4C957,804 957.9,804.3 961.6,804.1C964.3,803.9 965,807.5 965,821.7C965,845 961.5,857.7 952,868C950.3,869.9 947.4,873.4 945.7,875.8C944,878.1 942.3,880 941.8,880C941.4,880 941,880.8 941,881.7C941,882.6 938,889 934.3,895.9C926.1,910.9 919.1,918.7 910.3,922.6C903.2,925.8 899.9,925.5 887.8,920.5C875.6,915.5 869.2,915.4 858.5,920.2C848.4,924.7 840.7,925.9 838,923.5C836.7,922.3 835.7,922.1 834.3,922.8C832.9,923.6 829.9,922.7 821.5,919.3C815.5,916.9 807.4,914.2 803.5,913.4C796.5,911.9 784.3,906.5 772,899.4L765.5,895.7L770.4,900.1C780.6,909.2 788.9,915.8 792.9,918.1C797.3,920.5 797.9,921.5 795.5,922.4C794.7,922.7 794,923.4 794,924C794,925.3 799.3,925.3 800.6,924C801.2,923.4 806.1,925.5 814.1,929.5C838.8,942.1 854.5,946.2 878,946.4C886.3,946.5 894.4,946 897,945.3C899.5,944.7 904.9,943.4 909,942.4C918,940.4 926.4,936.3 939.5,927.6C944.9,924 949.7,921.3 950.2,921.6C950.6,921.9 950.9,921.7 950.8,921.2C950.6,920.7 954.3,916.9 959,912.8C976.4,897.6 987,883.5 997.8,861.8C1004.7,847.8 1006.7,844.6 1011.9,839.5L1018,833.6L1021.3,836.9C1023.6,839.3 1024.1,840.4 1023.2,840.7C1019.5,842.1 1014.9,847.9 1009.6,857.7C996.7,881.7 985,897.2 965.1,917C948.2,933.8 931.7,944.9 915.8,950.2C901.1,955 876.5,956.2 859,953.1ZM1134.4,939.6C1128.1,936.7 1123.6,932.6 1110.7,918.5C1105.2,912.5 1092.1,898.7 1081.6,887.9C1071.1,877.2 1060.2,865.9 1057.5,862.9C1054.7,859.9 1045.1,849.7 1036.2,840.1C1020.9,823.8 1019.9,822.6 1020.6,819.7C1021.1,817.1 1021,816.8 1019.4,817.4C1018.3,817.8 1017.2,818.2 1016.9,818.3C1016.5,818.4 1010.3,812.1 1003,804.3C995.8,796.4 990.5,790 991.3,790C992.1,790 993.1,789.3 993.4,788.4C994.3,786.1 994.2,786 992,786C990.9,786 990,786.7 990,787.5C990,788.3 989.7,789 989.2,789C988.8,789 983.2,783.6 976.7,777.1C966.4,766.7 965,764.9 965.5,762.7C966.3,759.8 964.7,758.4 963.1,760.4C962.1,761.6 958.1,757.8 941.2,740.2C918.9,717 772,570.4 755.5,555C729.7,530.8 718.1,517.4 711.9,504.6C707.9,496.4 708,489 712.1,489C714.2,489 714.6,490.5 712.9,491.6C711.6,492.4 712.4,498.5 714.1,500.6C715.7,502.6 721,502.3 728.2,499.9C736.9,497 767,482.3 781.6,473.9C789.4,469.4 794.3,467.2 795.4,467.6C796.5,468 796.9,467.8 796.5,466.9C796.2,466 798.8,463.8 804.2,460.5C817.4,452.6 837.6,438.9 849.5,429.9C856.9,424.4 861.3,421.7 862.9,421.8C864.5,421.9 865.1,421.6 864.7,420.6C864.3,419.7 868.3,415.7 876.3,409.2C903.4,387.1 931.6,361.2 964.4,328.1C975.4,317 984.7,308 985,308C985.3,308 986.1,308.5 986.7,309.1C987.3,309.7 988.3,309.9 988.9,309.6C990.2,308.7 990.3,305.7 989.1,304.5C988,303.4 988.5,303 1022.5,267.5C1055.3,233.4 1074.8,210.6 1098.4,178.8C1119.5,150.2 1121.4,136.2 1104.3,133.4C1099.4,132.6 1095.5,134.2 1085.2,141.1C1076.9,146.8 1051.6,160 1049.2,160C1048.3,160 1047.9,160.3 1048.3,160.6C1050.4,162.7 1077.6,150.7 1084.8,144.5C1087.2,142.4 1089.3,141 1089.6,141.3C1090.9,142.6 1080.7,149.3 1067.3,155.9C1059.2,159.9 1051.7,163.6 1050.8,164.1C1048.7,165.2 1040,165.3 1040,164.3C1040.1,163.2 1042.8,161.3 1062.2,148.8C1081.5,136.4 1096,128.8 1103.7,127C1108.7,125.9 1109.1,125.9 1114.2,128.9C1119.8,132.1 1131.4,143.4 1142,156C1145.5,160.1 1150,165.3 1152.1,167.5C1156.6,172.4 1171.9,190.3 1186,207C1195.2,217.9 1220.3,246.6 1222,248C1222.3,248.3 1227.7,254.4 1233.9,261.5C1240.1,268.7 1248,277.7 1251.4,281.5C1254.9,285.4 1264.6,296.4 1273.1,306C1281.5,315.6 1295.2,330.9 1303.5,340C1311.7,349.1 1321.9,360.3 1326,365C1330.1,369.7 1338.2,378.7 1344,385C1349.8,391.4 1363.3,406.7 1374,419C1421.1,473.1 1429.4,482.6 1446,500.9C1497.4,557.8 1518.3,583.6 1518.3,590.5C1518.3,591.8 1518.8,593.4 1519.4,593.9C1520.2,594.6 1520.5,598 1520.3,604.7C1519.3,631 1500,671.5 1463.5,723.5C1435.2,763.9 1379.8,818.3 1321,863.6C1288.6,888.5 1233.2,919.4 1201,930.4C1173.5,939.8 1168.3,941 1152.5,941.6C1140.3,942 1139.2,941.9 1134.4,939.6ZM1166.5,900.1C1167.2,898.9 1165.3,897.7 1164,898.5C1162.9,899.2 1163.6,901 1165,901C1165.5,901 1166.1,900.6 1166.5,900.1ZM1194,893.8C1194,891.1 1190.5,885 1189,885C1187.4,885 1187.8,889.9 1189.7,893.1C1191.8,896.6 1194,896.9 1194,893.8ZM1106.9,875.1C1108.5,874.1 1107.5,872 1105.5,872C1103.8,872 1102.7,873.7 1103.5,875C1104.3,876.2 1105.1,876.2 1106.9,875.1ZM1159,872.1C1159,870.9 1157,869.6 1156.3,870.3C1155.6,871 1156.9,873 1158.1,873C1158.6,873 1159,872.6 1159,872.1ZM743.1,867.7C742.3,866.9 742,867 742,868.1C742,870.1 743.3,871.5 743.8,870C744.1,869.3 743.7,868.3 743.1,867.7ZM729,865.6C729,864.8 728.6,863.9 728.1,863.5C726.9,862.8 725.7,864.7 726.5,866C727.4,867.5 729,867.2 729,865.6ZM1078.5,859C1078.8,858.4 1078.4,857.7 1077.5,857.4C1075.6,856.6 1074.5,857.4 1075.5,858.9C1076.3,860.3 1077.7,860.3 1078.5,859ZM1170.1,855C1172.6,853.6 1172.5,851.4 1170,850C1168.6,849.2 1167.5,849.3 1166,850.2C1161.4,853.1 1165.2,857.6 1170.1,855ZM1072.2,850.2C1070.3,849.6 1067.8,850.8 1068.5,852C1068.9,852.7 1069.9,852.6 1071.3,851.8C1072.7,851.1 1073,850.5 1072.2,850.2ZM1133.8,840.8C1133.2,839 1131,838.7 1131,840.4C1131,841.3 1131.7,842 1132.6,842C1133.5,842 1134,841.5 1133.8,840.8ZM719,839.6C719,838 717.2,836.5 716.3,837.4C715.5,838.2 716.8,841 718,841C718.5,841 719,840.4 719,839.6ZM1153.1,834.5C1153.1,834 1152.2,833.4 1151,833.2C1149,832.9 1148.3,834 1149.7,835.4C1150.7,836.3 1153.1,835.7 1153.1,834.5ZM1231.1,832.7C1229.5,831.1 1228.5,832.7 1230.1,834.6C1231,835.7 1231.6,835.8 1231.8,835C1232,834.4 1231.7,833.3 1231.1,832.7ZM1360.4,818.1C1366.7,813.2 1404.7,774.9 1419.9,758C1460.5,713.1 1494.2,660.8 1506.7,623.5C1512.2,607 1511.5,598.4 1503.7,587C1495.9,575.6 1476.8,552.8 1442.5,514C1432,502.2 1417.6,485.8 1410.5,477.5C1397.7,462.7 1380.6,443.7 1353.5,414.1C1345.8,405.7 1335,393.8 1329.5,387.6C1324,381.5 1315.3,372 1310.1,366.5C1292.6,348 1287.6,342.5 1265.9,317.9C1254,304.5 1241.2,290.1 1237.6,286C1233.9,281.9 1219.3,265.2 1205.2,249C1191.1,232.8 1178.7,218.6 1177.7,217.5C1176.7,216.4 1171.1,209.7 1165.2,202.5C1148.3,181.8 1136.3,167.6 1134.1,165.6L1132,163.7L1133.5,168.6C1134.4,171.3 1136,177.1 1137.1,181.5C1139.1,189.1 1143.1,202.9 1148.6,220.5C1156,244.1 1167.5,259.5 1195,282.9C1225.2,308.4 1233.1,317.2 1241.8,334.5C1246.7,344.4 1254.1,363.7 1257.9,377C1268.4,413.1 1272,422.1 1283.3,441C1291.8,455.2 1299.5,464.6 1320,485.5C1345.3,511.3 1349.7,516.7 1357.7,532C1361.3,539 1362.5,541.9 1366,552.5C1369.4,562.9 1366.6,578.4 1357.3,601C1345.2,630.4 1341.7,642 1340.1,658.2C1339.1,668.2 1339.6,688.3 1340.9,692C1341.4,693.4 1342.3,697 1343,700C1343.7,703 1346.1,709.8 1348.2,715C1356.5,735.2 1360.5,751.9 1359.4,761.6C1359.2,763.8 1357.4,770.6 1355.4,776.6C1350.7,791.2 1350,800.3 1353,808.9C1354.4,813.2 1354.9,816.5 1354.5,818.7C1354.2,820.5 1354.2,822 1354.6,822C1355,822 1357.6,820.2 1360.4,818.1ZM717.3,817.3C718.2,816.4 716.1,814 714.4,814C712.7,814 712.6,816.7 714.3,817.3C716.1,818.1 716.6,818.1 717.3,817.3ZM1319.5,810.5C1319.5,807.7 1316.6,808 1316.2,810.8C1315.9,812.7 1316.2,813.1 1317.7,812.8C1318.7,812.6 1319.5,811.6 1319.5,810.5ZM1165,803C1165,802.5 1164.4,802 1163.6,802C1162.8,802 1161.8,802.5 1161.5,803C1161.2,803.6 1161.8,804 1162.9,804C1164.1,804 1165,803.6 1165,803ZM1087.8,797.2C1088,796.5 1087.4,795.7 1086.5,795.4C1084.5,794.6 1083.8,795.3 1084.6,797.4C1085.3,799.2 1087.1,799.1 1087.8,797.2ZM1112,796.8C1112,795.5 1109.7,796.3 1109.2,797.8C1109,798.5 1109.4,798.8 1110.4,798.4C1111.3,798.1 1112,797.3 1112,796.8ZM1165.2,792.3C1167.6,790.1 1167.5,789 1164.7,789C1162.2,789 1160,790.7 1160,792.7C1160,794.5 1163,794.3 1165.2,792.3ZM1152.9,786.7C1154.2,785 1153.4,784 1150.5,784C1149.3,784 1148,784.3 1147.7,784.7C1146.8,785.5 1148.9,788 1150.5,788C1151.2,788 1152.3,787.4 1152.9,786.7ZM1162.8,784.6C1163.1,783.4 1162.7,782.9 1161.8,783.2C1161.1,783.5 1160.3,784.5 1160.2,785.4C1159.9,786.6 1160.3,787.1 1161.2,786.8C1161.9,786.5 1162.7,785.5 1162.8,784.6ZM1114.9,778.1C1115.8,777.6 1120.6,775.4 1125.5,773C1145.6,763.6 1179.4,741.1 1204.5,720.6C1237.7,693.5 1266.7,666.3 1284.4,645.7C1297.3,630.5 1316.6,604.8 1321.4,596.2C1328,584.4 1328.2,585.2 1313,569.1C1305.8,561.4 1298.8,553.8 1297.7,552.3C1295.3,549.2 1272.9,523 1256,503.6C1250.2,496.9 1240.7,485.9 1235,479C1220.3,461.4 1206.2,445.1 1196,434C1191.2,428.8 1181.1,417.5 1173.4,409C1157.6,391.4 1133.9,367.3 1126.7,361.5C1121,357 1120.3,357.2 1115,364.4C1092.7,394.8 1041.5,446.8 997.5,483.5C983.2,495.5 948,521.3 924,537.4C911.1,546.1 899.5,554.2 898.2,555.4C894.4,558.8 895.9,562.2 905.8,572.5C910.6,577.5 920.2,587.8 927.2,595.5C940.4,610 963.5,634.4 999.4,671.7C1010.9,683.7 1027.1,700.9 1035.4,710C1048.7,724.6 1057.5,734.2 1084.8,763.2C1088.9,767.5 1094.3,773.1 1096.8,775.6L1101.5,780.1L1107.4,779.5C1110.6,779.1 1114,778.5 1114.9,778.1ZM1248.5,775C1249.2,773.9 1244.6,772.5 1243,773.5C1242.5,773.8 1242.2,774.6 1242.5,775.1C1243.3,776.3 1247.7,776.3 1248.5,775ZM1079.1,767.4C1080.1,766.1 1080.1,765.7 1078.9,765C1077.4,764 1073.9,765.8 1073.2,767.8C1072.6,769.6 1077.5,769.2 1079.1,767.4ZM1334,764.4C1334,762.7 1330.4,762.5 1329.4,764.1C1328.6,765.5 1330.8,767 1332.7,766.3C1333.4,766 1334,765.2 1334,764.4ZM657.5,737C657.9,736.4 657,736 655.6,736C654.2,736 653,736.5 653,737C653,737.6 653.9,738 654.9,738C656,738 657.2,737.6 657.5,737ZM1028.5,726.9C1029.5,725.4 1028.4,724.6 1026.5,725.4C1025.6,725.7 1025.2,726.4 1025.5,727C1026.3,728.3 1027.7,728.3 1028.5,726.9ZM1231.8,723.6C1232.1,721.6 1231.8,720.9 1230.8,721.2C1230.1,721.5 1229.4,722.9 1229.2,724.4C1228.9,726.4 1229.2,727.1 1230.2,726.8C1230.9,726.5 1231.6,725.1 1231.8,723.6ZM1006.8,723.2C1007.1,722.3 1006.6,721.9 1005.4,722.2C1004.5,722.3 1003.5,723.1 1003.2,723.8C1002.9,724.7 1003.4,725.1 1004.6,724.8C1005.5,724.7 1006.5,723.9 1006.8,723.2ZM944.2,716.8C943.6,716.2 942.7,715.9 942.4,716.3C942,716.6 942,717.7 942.4,718.6C942.9,719.9 943.3,720.1 944.2,719.2C945.1,718.3 945.1,717.7 944.2,716.8ZM941.5,714.6C943.1,713.4 943.2,713 942.1,711.6C940.4,709.6 937.6,709.6 935.5,711.6C932.3,714.9 937.6,717.5 941.5,714.6ZM636,708C636,706.9 635.6,706 635,706C634.5,706 634,706.9 634,708C634,709.1 634.5,710 635,710C635.6,710 636,709.1 636,708ZM953.1,703.7C953,702.5 951.6,702.8 951.2,704.1C950.9,704.7 951.3,705.1 952,704.9C952.6,704.6 953.1,704.1 953.1,703.7ZM996.4,688.4C996.8,687.5 996.8,686.5 996.5,686.2C995.9,685.6 993,688 993,689.1C993,690.7 995.8,690.1 996.4,688.4ZM893,682.2C893,680.3 891.2,678 889.8,678C888.6,678 888.9,681.5 890.2,682.8C891.9,684.5 893,684.3 893,682.2ZM929.7,676.5C930,675.6 930,674.7 929.8,674.4C928.9,673.5 926,675.2 926,676.6C926,678.5 928.9,678.4 929.7,676.5ZM1297.8,675.4C1297.4,673.4 1294.4,671.3 1293.4,672.3C1292.6,673.1 1295.8,677 1297.2,677C1297.7,677 1298,676.3 1297.8,675.4ZM635.9,667.1C636.8,666.5 636.9,666 636.1,665.6C634.8,664.8 633,665.7 633,667.1C633,668.2 634.1,668.2 635.9,667.1ZM922,640.3C922,638.8 921.5,638 920.8,638.2C918.9,638.9 917.6,641.6 918.4,643.5C919.3,645.9 922,643.6 922,640.3ZM661.1,639.1L663.4,637.3L661.1,636.1C659.3,635.1 658.4,635.2 656.3,636.6C653.8,638.2 653.7,638.3 655.5,639.6C657.9,641.4 658.3,641.4 661.1,639.1ZM1347.8,615.1C1348.1,614.3 1347.7,613.9 1346.9,614.2C1346.2,614.4 1345.4,615.2 1345.2,615.9C1344.9,616.7 1345.3,617.1 1346.1,616.8C1346.8,616.6 1347.6,615.8 1347.8,615.1ZM1515.1,609.5C1515,608 1512.7,608.3 1512.2,609.8C1511.9,610.7 1512.4,611.1 1513.4,610.8C1514.4,610.7 1515.1,610.1 1515.1,609.5ZM921,601.5C922,600.2 922,599.6 920.5,598C917.9,595.2 912,595.6 912,598.5C912,602.3 918.5,604.5 921,601.5ZM843.8,583.2C844.2,580.5 842.4,580.3 841,582.9C839.6,585.6 839.7,586.2 841.8,585.8C842.7,585.6 843.6,584.5 843.8,583.2ZM877.8,582.8C877.3,581.2 873,580.4 873,581.8C873,582.9 874.7,583.8 876.8,583.9C877.6,584 878,583.4 877.8,582.8ZM794.5,580.1C795.1,579.1 792.4,576 791,576C789.3,576 789,577.9 790.6,579.4C792.4,581.2 793.6,581.4 794.5,580.1ZM1345.4,572.4C1346.4,569.9 1346.1,569.2 1343.8,567C1341.2,564.6 1340,564.4 1340,566.5C1340,567.3 1339.5,568 1338.8,568C1338.2,568 1338.9,569.4 1340.5,571C1343.8,574.4 1344.5,574.6 1345.4,572.4ZM1308.6,551.5C1310.4,550 1310.4,550 1308.1,550.2C1306.7,550.4 1305.5,551.1 1305.2,551.8C1304.7,553.5 1306.2,553.3 1308.6,551.5ZM1322,546.3C1322,544.5 1319.2,541 1317.8,541C1316.6,541 1316.8,543.7 1318.2,546C1319.8,548.4 1322,548.6 1322,546.3ZM791.8,511.8C793.4,510.2 793.3,506.5 791.7,505.1C790.6,504.3 789.9,504.5 788.5,506C787,507.7 786.9,508.4 787.8,510.5C789.1,513.3 790,513.6 791.8,511.8ZM1296.4,507.7C1295.1,504.3 1292.4,506.6 1293.5,510.1C1294.1,511.9 1294.4,512 1295.6,510.8C1296.4,510 1296.8,508.6 1296.4,507.7ZM1297.5,502C1297,501.2 1296.4,501.2 1295.8,501.8C1295.2,502.4 1295.1,503.4 1295.5,504C1296,504.8 1296.6,504.8 1297.2,504.2C1297.8,503.6 1297.9,502.6 1297.5,502ZM763.7,501.3C764.4,499.5 760.4,495.6 758.9,496.6C757.4,497.5 757.9,500.8 759.8,501.9C762.2,503.4 763,503.2 763.7,501.3ZM936,492.6C936,488.9 933.2,486 929.8,486C927,486 927.3,492.4 930.2,494.4C934,497.1 936,496.5 936,492.6ZM939.4,484.5C939.7,483.6 939.4,483 938.5,483C937.7,483 937,483.7 937,484.5C937,485.3 937.4,486 937.9,486C938.4,486 939,485.3 939.4,484.5ZM831,481.4C831,480.6 830.6,480.2 830,480.5C829.5,480.8 829,481.8 829,482.6C829,483.4 829.5,483.8 830,483.5C830.6,483.2 831,482.2 831,481.4ZM796,479.4C796,476.6 790.6,470.5 789,471.5C787.2,472.6 787.9,475.7 790.6,478.9C793.8,482.7 796,482.9 796,479.4ZM1298,474C1299.1,472.9 1300,470.9 1300,469.5C1300,466 1295.9,466.1 1293.1,469.6C1289.9,473.7 1290.4,475.1 1295.3,475.9C1295.7,475.9 1296.9,475.1 1298,474ZM927.4,469.7C928.9,467.3 927.1,466.2 925.4,468.4C924.6,469.5 924,470.8 924,471.3C924,472.6 926.2,471.6 927.4,469.7ZM875.5,459.1C874.5,457.5 873,458.8 873,461.3C873,463.3 873.1,463.3 874.6,461.8C875.5,460.9 875.9,459.7 875.5,459.1ZM949.8,453.1C950.1,452.3 949.7,451.9 948.9,452.2C948.2,452.4 947.4,453.2 947.2,453.9C946.9,454.7 947.3,455.1 948.1,454.8C948.8,454.6 949.6,453.8 949.8,453.1ZM966.8,450.6C967.1,449.4 966.7,448.9 965.8,449.2C965.1,449.5 964.3,450.5 964.2,451.4C963.9,452.6 964.3,453.1 965.2,452.8C965.9,452.5 966.7,451.5 966.8,450.6ZM902.3,417C902.9,414.8 900.7,412 898.4,412C896.5,412 896.6,415.5 898.6,417.4C900.7,419.5 901.7,419.4 902.3,417ZM1004,411.9C1004,407.4 1003.1,406.6 1000.2,408.6C997.7,410.3 997.2,415.8 999.2,417.8C1001.2,419.8 1004,416.3 1004,411.9ZM967.4,414.1C968.2,412.8 965.4,410.8 963.4,411.2C961.7,411.5 961.7,411.6 963.4,413.3C965.3,415.2 966.6,415.5 967.4,414.1ZM1246,404.9C1246,402.5 1243.7,402.8 1243.2,405.3C1243,406.3 1243.5,407 1244.4,407C1245.4,407 1246,406.1 1246,404.9ZM900,396.5C901,395.3 901,395 899.7,395C897.4,395 895,396.1 895,397.1C895,398.6 898.7,398.1 900,396.5ZM1176.1,364.5C1176,363 1173.7,363.3 1173.2,364.8C1172.9,365.7 1173.4,366.1 1174.4,365.8C1175.4,365.7 1176.1,365.1 1176.1,364.5ZM1096,362C1096,360.1 1094.9,359.4 1093.7,360.6C1092.9,361.4 1094,364 1095.1,364C1095.6,364 1096,363.1 1096,362ZM1200.7,360.5C1201,359.6 1201,358.6 1200.6,358.3C1199.9,357.6 1197,359.9 1197,361.1C1197,362.6 1200,362.1 1200.7,360.5ZM1130,358.5C1129.3,357.6 1128.5,357.2 1128.2,357.5C1127.9,357.7 1128.3,358.6 1129,359.5C1129.7,360.4 1130.5,360.8 1130.8,360.5C1131.1,360.3 1130.7,359.4 1130,358.5ZM1006.8,354.8C1008.4,353.2 1008.3,351 1006.6,351C1004.8,351 1002.7,353.7 1003.5,355C1004.3,356.3 1005.3,356.3 1006.8,354.8ZM1004,335.2C1004,333.9 1002.8,333 1001.8,333.6C1000.8,334.2 1001.7,336 1003.1,336C1003.6,336 1004,335.6 1004,335.2ZM1046,323.5C1046,320.7 1042.3,318.3 1039.6,319.3C1036.6,320.5 1040.4,326 1044.2,326C1045.5,326 1046,325.2 1046,323.5ZM1150.4,319.4C1152.5,318.6 1152.5,316 1150.4,316C1148.3,316 1145,317.8 1145,319C1145,320.1 1148,320.3 1150.4,319.4ZM1190.8,307.2C1191.2,304.8 1190.1,304.3 1188.2,306.2C1186.4,308 1186.7,310.2 1188.8,309.8C1189.7,309.6 1190.6,308.5 1190.8,307.2ZM1154.1,288C1156.2,286.8 1156.7,281.7 1155,279C1154.3,277.8 1153.7,277.9 1151.6,280C1148.7,282.7 1148.6,282.9 1150,286.4C1151.1,289.3 1151.3,289.4 1154.1,288ZM1128.4,266.5C1130.1,264.8 1129.5,262 1127.5,262C1125.6,262 1123.7,264.8 1124.4,266.5C1125.1,268.4 1126.4,268.4 1128.4,266.5ZM1091,255.1C1091,254.1 1088,252.7 1087.3,253.4C1087,253.7 1087.1,254.3 1087.5,254.9C1088.3,256.2 1091,256.4 1091,255.1ZM1080.4,242.4C1080.7,241.5 1080.7,240.4 1080.4,239.9C1079.6,238.6 1077,240.8 1077,242.6C1077,244.5 1079.6,244.4 1080.4,242.4ZM1080,234.5C1080,231.6 1076.3,229 1075.4,231.4C1074.7,233.3 1076.7,237 1078.5,237C1079.4,237 1080,236 1080,234.5ZM1127,209.5C1127,208.7 1126.3,208 1125.5,208C1122.9,208 1123.7,210 1126.8,210.9C1126.9,211 1127,210.3 1127,209.5ZM1108.5,182.5C1108.5,179.1 1105.5,176.7 1104,179C1102.6,181.2 1102.8,182.6 1104.6,184.5C1106.8,186.7 1108.5,185.9 1108.5,182.5ZM1117,169.9C1117,169.4 1116.3,169 1115.5,169C1114.7,169 1114,169.7 1114,170.5C1114,171.4 1114.6,171.7 1115.5,171.4C1116.3,171 1117,170.4 1117,169.9ZM1128.8,148.3C1129.4,146.4 1126.3,146.7 1125.6,148.6C1125.2,149.7 1125.5,150 1126.7,149.8C1127.6,149.6 1128.5,148.9 1128.8,148.3Z"
   style="fill:rgb(242,216,212);fill-rule:nonzero;" />
    <path
   id="language_bg"
   d="M1096.9,766.3C1092.2,761.4 1086,754.8 1083,751.5C1080,748.2 1071.2,738.8 1063.4,730.5C1055.6,722.3 1047.1,713 1044.5,710C1041.9,707 1035.8,700.5 1031,695.5C1026.3,690.6 1018.4,682.2 1013.5,677C1008.6,671.8 996.3,658.9 986.1,648.4C975.8,638 956,617.6 942,603.1C928,588.6 912.7,573.5 907.8,569.5C901.2,563.9 899.4,561.9 900.4,561.1C901.1,560.5 912.6,552.7 926.1,543.8C947.8,529.2 967.2,515.4 984.2,502.4C987.5,499.8 990.9,498 992.4,498C994.4,498 995,497.5 995,495.9C995,494.8 996.5,492.7 998.2,491.2C1025.5,468.6 1056,440.4 1077.9,417.7C1083.7,411.7 1086.6,409.2 1087.4,410C1087.9,410.5 1088.9,411 1089.4,411C1090,411 1089.6,410.3 1088.6,409.5C1086.7,408 1086.7,407.9 1090.2,404.2C1096.5,397.7 1116.1,373.7 1119.7,368.3C1122.9,363.2 1124.5,362 1125.2,363.9C1125.6,365 1132.3,373 1146.3,389C1148,390.9 1153.3,396.8 1158,402C1162.8,407.2 1170.7,416.1 1175.6,421.6C1180.5,427.2 1189.7,437.5 1196.1,444.6C1202.5,451.7 1214.8,466.1 1223.5,476.5C1232.2,487 1244.6,501.6 1251,509C1264.1,524 1277.2,539.4 1290,554.5C1294.6,560 1302.7,568.9 1308,574.3C1313.2,579.7 1317.7,584.5 1317.8,585.1C1319,588.4 1296.3,620.7 1277.1,643C1250.8,673.6 1201.7,716.3 1160.7,744.4C1141.5,757.5 1110.6,775 1106.6,775C1106,775 1101.6,771.1 1096.9,766.3ZM1132.8,740.8C1132.3,739.2 1128,738.4 1128,739.8C1128,740.9 1129.7,741.8 1131.8,741.9C1132.6,742 1133,741.4 1132.8,740.8ZM1020.5,677.2C1021.9,676.2 1025,671.3 1025,670C1025,668 1021.8,669 1018.9,671.9C1017.3,673.5 1016,675.6 1016,676.4C1016,678 1018.7,678.5 1020.5,677.2ZM1254.8,659.2C1255.1,658.2 1254.4,657.9 1252.4,658.2C1250.9,658.4 1249.5,659.1 1249.2,659.8C1248.9,660.8 1249.6,661.1 1251.6,660.8C1253.1,660.6 1254.5,659.9 1254.8,659.2ZM1068,658.1C1068,657.6 1067.3,657 1066.5,656.6C1065.6,656.3 1065,656.6 1065,657.5C1065,658.3 1065.7,659 1066.5,659C1067.3,659 1068,658.6 1068,658.1ZM1080,656.6C1080,655.1 1077.6,653.8 1076.6,654.7C1075.9,655.4 1077.9,658 1079.1,658C1079.6,658 1080,657.4 1080,656.6ZM1005.1,654.4C1006.3,653 1006.2,652.8 1004.6,653.1C1003.5,653.3 1002.5,654.1 1002.2,654.8C1001.7,656.5 1003.5,656.3 1005.1,654.4ZM1114.5,631.9C1113.7,630.7 1111,630.7 1111,631.9C1111,633 1113.2,633.9 1114.3,633.3C1114.7,633.1 1114.8,632.4 1114.5,631.9ZM1105.5,625.2C1105.5,623.4 1103.5,623.7 1103.2,625.6C1102.9,626.6 1103.3,627.1 1104.2,626.8C1104.9,626.5 1105.5,625.8 1105.5,625.2ZM1115.6,610.5C1117.5,609 1117.5,609 1115.3,607.1C1111.9,604.3 1107.2,605.9 1108.6,609.4C1109.1,610.7 1110.2,611.3 1113.1,611.9C1113.4,611.9 1114.5,611.3 1115.6,610.5ZM980.5,607C980.2,606.5 979.2,606 978.4,606C977.6,606 977.2,606.5 977.5,607C977.8,607.6 978.8,608 979.6,608C980.4,608 980.8,607.6 980.5,607ZM1036,603.3C1036,601.5 1034.3,601.7 1033.6,603.6C1032.8,605.8 1034,607.6 1035.1,605.9C1035.6,605.1 1036,603.9 1036,603.3ZM1054.8,570.8C1054.5,570.1 1053.5,569.3 1052.4,569.1C1050.8,568.8 1050.7,569 1051.9,570.4C1053.5,572.3 1055.3,572.5 1054.8,570.8ZM987,555.9C987,554.8 984.3,554.7 983.6,555.9C983.3,556.3 983.3,557 983.6,557.3C984.4,558.1 987,557 987,555.9ZM1055.6,552.5C1054.9,550.7 1053,550.5 1053,552.3C1053,554.1 1055.4,556.4 1055.8,555C1056,554.4 1055.9,553.3 1055.6,552.5ZM1033.6,551.5C1034,550.7 1033.9,549.3 1033.6,548.4C1033.1,547.1 1032.7,547 1031.5,548C1030.7,548.7 1030,550.1 1030,551.1C1030,553.4 1032.8,553.6 1033.6,551.5ZM975.5,549.5C978.7,546.4 978.6,545.2 975.4,544.4C971,543.3 965.5,547.8 967.5,551C968.6,552.8 973.1,552 975.5,549.5ZM1081,533.1C1081,531.9 1079,530.6 1078.3,531.3C1077.6,532 1078.9,534 1080.1,534C1080.6,534 1081,533.6 1081,533.1ZM1088.8,532.8C1088.3,531.3 1084,530.4 1084,531.8C1084,533.2 1085.2,534 1087.3,534C1088.3,534 1089,533.5 1088.8,532.8ZM1159.6,517.3C1162,514.1 1160.7,506 1157.8,506C1154.4,506 1152.9,513 1155.6,516.8C1157.4,519.5 1157.9,519.5 1159.6,517.3ZM1172.1,498.7C1172,497.5 1170.6,497.8 1170.2,499.1C1169.9,499.7 1170.3,500.1 1171,499.9C1171.6,499.6 1172.1,499.1 1172.1,498.7ZM1105.8,415.3C1105.4,413.1 1102,412.3 1102,414.3C1102,415.7 1103.3,416.7 1105.3,416.9C1105.8,417 1106,416.2 1105.8,415.3ZM1120.4,372.9C1119.6,371.6 1118,372.8 1118,374.7C1118,376 1118.3,376 1119.5,375C1120.3,374.3 1120.7,373.4 1120.4,372.9Z"
   style="fill:url(#linearGradient1100);fill-rule:nonzero;fill-opacity:1" />
    <path
   id="spill"
   d="M462.4,671.9C448.7,670.6 441,664.4 441,654.8C441,644.7 447.1,637.5 461.8,630.1C467.4,627.3 475.5,622 481,617.5C492.3,608.4 500.5,603.2 506.7,601.4C510.7,600.2 511.5,600.2 514.9,602C519.3,604.2 521.1,607.7 521.5,614.9C522.5,634.3 506.7,657.6 485.6,667.9C476.6,672.2 472.8,672.9 462.4,671.9ZM479.5,663.5C498.5,654.8 513.9,633.9 514,616.7L514,612.8L508.8,618.5C506,621.6 499.3,627.3 493.9,631.1C488.6,634.9 483.1,639.3 481.8,641C472.7,653 469.6,655 460.1,655C454.8,655 453.6,654.6 450.5,651.9L447,648.8L447,653.3C447,659.1 449.7,662.5 455.8,664.5C462,666.5 474.2,666 479.5,663.5ZM413,597.6C396.6,594.1 389.1,582.6 391.9,565.4C395.1,545.4 407.3,532.6 435.6,519.7C483.9,497.6 495.1,487.6 507.7,455C519.1,425.4 524.9,414 534.1,402.2C543.7,390 569.4,374.3 583.5,371.9C592.4,370.5 607.8,370.7 620,372.4C633,374.3 648.8,373.2 656.5,369.9C657.6,369.4 659.8,368.6 661.3,368C665.9,366.4 675.2,359.6 680.1,354.4C685,349.1 689.3,340.9 690.9,333.9C692.8,325.3 688.9,316.1 681.7,312.4C676.3,309.6 664.2,312.1 649,319.3C633.7,326.5 620.3,329.6 610.4,328C600.8,326.4 598.1,324.4 595.5,317C591.2,305 601.4,287.5 617.1,279.7C635.3,270.7 652.7,267.2 688,265.5C694.3,265.2 701.3,264.6 703.5,264.1C705.7,263.6 712,262.2 717.5,261C733,257.7 742.5,254.3 754.6,247.8C771.2,238.9 781.6,230.6 800.5,211.1C843.9,166.4 841.7,168.5 843.4,169.9C844.2,170.6 845.5,171 846.2,170.7C847,170.4 846.6,169.9 845.2,169.3C842.9,168.4 842.9,168.3 847,164.6C850.4,161.6 851.4,161.1 852.2,162.1C853,163.2 853.1,163.1 852.7,161.8C851.6,158.7 866.3,150.5 880.5,146.3C891.8,142.9 933.6,144.2 934.8,147.9C935.1,148.7 935.6,148.8 936.4,148.1C938.2,146.6 951.2,150 971.5,157.4C997.6,166.7 1000.5,167.4 1013,166.6C1035.3,165.2 1054.7,160.7 1070.2,153.1C1075.9,150.4 1082.4,146.5 1084.8,144.5C1091.6,138.6 1090.9,141.3 1083.9,148.2C1069.7,162.2 1044.8,170.7 1010.2,173.4C997.7,174.4 984.7,171.5 958.1,161.6C942.2,155.7 927.5,151.6 916.5,150C899.8,147.7 878,149.8 873.3,154.2C869.3,157.9 866.1,166.1 864.5,176C861.3,196.4 851.1,216.4 837.7,228.6C834.3,231.7 833.2,233.6 832.7,236.7C831.8,242.4 827.3,247.8 815.6,257.7C809.4,262.9 803.6,268.9 799.8,274.1C793.3,283 787.4,286.8 782.2,285.5L779.5,284.9L781.8,287.2C783.7,289.2 785,289.5 790.8,289.4C802.9,289.3 818.6,281.9 836.3,268.1C843.3,262.7 850,258.3 853.4,257C855.5,256.2 855.7,256.4 855.2,258.2C854.8,259.8 855.1,260.1 857.1,259.8C858.8,259.6 859.6,258.8 859.8,256.8C860.1,254.4 860.6,254.1 865.3,253.4C878.9,251.5 890.7,253.5 907,260.3C923,266.9 924,267.2 933,267.2C944,267.1 941.4,269 929.4,269.8C920.2,270.3 915.6,269.5 903.5,264.8C893.9,261.2 883.8,260.2 872.1,261.9C861.5,263.5 853.8,267.1 841.4,276.2C819.5,292.5 804.6,298.7 790.8,297.5C779.2,296.4 773,290.4 773,280.2C773,273.5 775.1,263.6 777.6,258.1C778.9,255.1 779.8,252.5 779.6,252.3C779.4,252 777.8,252.6 776,253.5C768.7,257.3 753.9,261.5 739,264C733.2,265 725.4,266.8 721.5,268C706.9,272.4 693,274.8 681,275.1C656.9,275.6 650.8,277.9 639.4,290.8C635,295.7 629.8,301.7 627.8,304.2C624.8,307.8 623.6,308.7 621.7,308.3C618.4,307.6 615.2,309.5 614.8,312.2C614.5,314.2 613.8,314.5 609.8,314.8C607,315 603.9,314.5 602.2,313.6C599.4,312.1 599.2,312.2 599.7,313.9C600.8,318 604.4,320.1 610.7,320.2C618.6,320.3 625.1,318.2 642.6,309.9C657.3,302.9 664.9,300.7 673.9,300.7C685.7,300.8 693.4,304.3 697.8,311.9C700.2,316.1 700.5,317.4 700.4,326C700.3,338.6 697.4,346.1 687.9,358.4C685.8,361.1 685.8,361.2 687.7,360.2C691.2,358.3 699.8,350 703.6,344.9C705.6,342.2 707.4,340.1 707.6,340.3C708.2,340.9 703.5,352.3 700.8,356.5C699.4,358.7 695.6,363.1 692.4,366.2C672.1,385.7 661.5,388.9 610,390.5C589.7,391.2 585.6,391.9 574.3,397.2C564.8,401.6 551.4,417.9 552.8,423.2C553.7,426.8 558.6,430.7 565.7,433.4C577.3,437.8 583,445.5 583,456.6C582.9,465.9 578.5,473.6 570.9,477.6C566.7,479.7 556.6,479.8 545.1,477.6C540.5,476.7 534.1,476 530.9,476C516.8,476 501.1,488.5 489.9,508.5C484.4,518.5 472.8,534 467.5,538.7C462,543.5 450,550 443,551.9C440.5,552.6 437.2,553.5 435.5,554C433.9,554.5 430.5,555.1 428,555.5C412.4,557.9 402.4,565.1 400,575.6C398.8,580.9 401.7,587.2 406.3,589.1C412,591.6 422.5,590.7 431.5,587.2C449.8,579.9 460.8,571.4 477.5,551.5C487.7,539.3 491.8,535.4 499.4,530.5C514.3,521.1 534,521.2 539,530.8L540.8,534L542.8,529.3C543.9,526.6 546,519.5 547.5,513.3C550.6,500.7 552.5,496.9 557.2,494C561.4,491.4 565.9,491.5 571.2,494.1C577.8,497.3 581,502.1 581,508.7C581,515.2 579.9,517.9 572.8,529.2C569.7,534.2 566.4,541 565.1,545.2C561.9,555.7 560.9,557.9 558.2,561.1C553.8,566.4 557.6,564.1 565.6,556.6C573.9,548.9 580.7,538.7 590,520C592.4,515.3 596.5,508.1 599.3,504C606,494.1 619.1,481 625.4,478.1C632.8,474.7 643.4,472.7 650.6,473.5C657.1,474.2 660.6,475.9 664.1,480.4C666.1,483 666.8,483.2 671.5,482.8C679.1,482.2 685.8,478.3 700,466.4C722.7,447.4 732.6,441.3 744.5,439.1C754.3,437.3 764.3,439.4 770.1,444.7C774.8,449 775.2,450.7 770.8,448C767.3,445.9 757.6,445.2 756.5,447C756.2,447.6 754.9,448 753.6,448C750.4,448 739.5,452.6 733.6,456.5C730.8,458.3 723.8,463.2 718,467.4C700.7,479.9 685.6,486 672,486C667.8,486 665.7,485.3 661,482.4C654.1,478.1 647.9,477.7 638.6,481C624.2,486 618.5,492.3 605.9,517.4C594.7,539.5 589.5,548.1 582.5,555.8C571,568.4 561.8,573.5 549.3,574.3L543.1,574.7L543.7,571.8C544.3,568.7 542.4,564 540.5,564C538.7,564 536.7,568.5 537.5,570.9C538.5,574 535.9,573.6 532.4,569.9C528.2,565.5 528.4,559.2 533.2,548.5C538.4,536.9 538.7,534.6 535.5,531.4C533,528.9 532.4,528.8 526.9,529.4C517.2,530.4 510.7,534.1 500,544.9C494.7,550.2 487.1,558.5 483.1,563.3C468,581.5 449.2,594 431.8,597.5C422.9,599.2 420.5,599.3 413,597.6ZM555,460.7C555,459 551.2,455.4 550.4,456.3C549.6,457.1 552.7,462 554,462C554.6,462 555,461.4 555,460.7ZM610,460.9C600.8,457.3 602.5,445.5 613.9,434.7C619.2,429.7 629.3,423.8 639,420C640.9,419.3 644.1,417.4 646.1,415.9C651.1,412 659.3,408 662.3,408C665.8,408 669.2,412.4 668.4,415.9C668.1,417.3 667.7,419.5 667.4,420.7C666.8,423.8 661.8,429.3 654.6,434.7C651.2,437.3 644,443.7 638.5,449C633,454.4 627.1,459.5 625.3,460.4C621.8,462.2 613.9,462.4 610,460.9ZM705.5,428C695.8,424.9 689,416.8 688.2,407.6C687.4,397.7 691.9,384.4 698.5,377.1C700.6,374.8 707.4,369.6 713.6,365.4C728,355.8 734.3,349.1 740.9,336C747.3,323.2 750.9,318.7 758.3,313.9C766.7,308.5 773.6,306.6 785.5,306.5C796.2,306.5 803.1,308.3 806.5,312C808.6,314.3 809.7,322.4 808.1,323.5C807.4,323.8 803.3,325 798.9,326.1C794.5,327.1 789.6,328.7 788.1,329.5C783.6,331.8 777.9,339 772.1,349.6C753.1,384.4 731.6,408.1 715.9,411.5C711.2,412.6 703.3,411 699.4,408.4C697.4,407 695.6,406.1 695.3,406.4C694.3,407.4 698.9,415.7 701.8,418.2C706.5,422.1 712,422.5 721.3,419.5C731.7,416.2 744.4,410.2 756.3,402.8C768.4,395.4 780.9,389.5 787.4,388.2C790.2,387.6 797.2,387.4 803.9,387.8C810.3,388.2 821.6,388.4 829,388.4C841,388.4 843.3,388.1 849.8,385.8C853.7,384.3 857,383.3 857,383.5C857,384.4 846.3,389.4 840.5,391.2C837,392.3 827,393.7 816.5,394.5C789.4,396.8 782.9,398.9 762,411.5C742.6,423.3 730.8,427.8 717.3,428.5C712.5,428.7 707.2,428.5 705.5,428ZM559,398.1C559,396.7 556,394 554.5,394C552.5,394 553.7,396.5 556.3,397.8C559.1,399.2 559,399.2 559,398.1ZM777.8,396.2C778.1,395.3 777.6,394.9 776.4,395.2C775.5,395.3 774.5,396.1 774.2,396.8C773.9,397.7 774.4,398.1 775.6,397.8C776.5,397.7 777.5,396.9 777.8,396.2ZM723,383.1C723,381.9 720.1,379 718.9,379C717.5,379 717.8,380.1 719.7,382.2C721.4,384.1 723,384.6 723,383.1ZM636.8,379.8C636.6,379.2 635.8,378.4 635.2,378.2C634.5,378 634.2,378.4 634.6,379.4C635.3,381.2 637.4,381.6 636.8,379.8ZM864.2,354.1C859.5,352.9 853,348.3 853.6,346.6C853.9,345.8 853.3,345.1 852.2,344.8C851,344.4 850.1,343.1 849.7,340.8C849.1,336.6 850.2,330 851.3,331.8C851.8,332.4 851.8,333.5 851.5,334C851.1,334.6 851.4,335.8 852.1,336.6C853.8,338.6 854.7,336.9 854.2,332.5C853.9,330.4 853.2,329 852.4,329C850.3,329 850.7,327.8 853.8,323.4C860.6,314.2 866.8,310.3 891.5,299.9C900,296.3 907.4,291.7 912.9,286.6L916.2,283.5L913.7,288.5C912.4,291.3 910.7,295.3 910,297.5C908.1,303.4 902.4,314.4 898.3,320.1C892.2,328.6 877,339.8 873,338.7C871.9,338.4 871.2,338.6 871.5,339C872.4,340.5 868.3,342 863.4,342C858.8,342 858.7,342 860.5,344C861.4,345 864.5,346.7 867.3,347.6C877.2,350.9 888,348.5 910.5,338C928.5,329.6 928.3,330.3 909.2,341.8C901.9,346.3 893.4,350.8 890.2,352C884,354.4 869.9,355.5 864.2,354.1ZM500.3,345C494.3,343.8 488.5,340.5 486,336.9C482.9,332.7 482.9,323.1 485.8,317.3C489.1,311 498.1,303.6 506.4,300.5C521.7,294.7 542.7,298.4 548.3,307.8C550.4,311.4 550.6,319.7 548.7,324.3C546.8,328.7 537.2,337.3 530.4,340.6C524.9,343.3 513.3,345.9 507.5,345.8C505.9,345.8 502.6,345.4 500.3,345ZM521.8,336C532.7,331.8 539.3,326.3 541,319.9C541.9,316.8 541.7,315.6 540,312.7C538.9,310.9 536.8,308.8 535.4,308.2C532.1,306.6 532,306.7 532,308.8C532,311.2 529.3,314 521.8,319.3C505.2,330.9 495.5,333.6 489.9,328.1C486.7,324.8 486.3,325.4 488.4,330.4C489.8,333.8 493.9,337.3 497.5,338.3C501.6,339.5 516.5,338.1 521.8,336ZM764,323.9C764,322.8 763.6,322.2 763,322.5C762.5,322.8 762,323.8 762,324.6C762,325.4 762.5,326 763,326C763.6,326 764,325.1 764,323.9ZM771,316C770.4,314.9 769.5,314.2 769,314.5C767.7,315.3 769,318 770.6,318C771.8,318 771.8,317.6 771,316ZM691.2,219.9C681.7,218.3 673.2,212.1 672.9,206.7C672.3,198.8 673.7,194.9 680.2,186.4C690.4,172.8 707.3,168.4 728,173.9L736.5,176.1L746.5,172.5C763.6,166.2 778.5,166.5 782.1,173.2C785.4,179.3 782,191.2 775.2,197.2L771.5,200.4L771.2,197.9C770.7,194.4 769.5,193.6 767.6,195.6C766.5,196.7 766.1,198.1 766.4,199.6C766.7,200.8 766.6,202.1 766,202.5C765.5,202.8 761.1,203.5 756.3,204.1C747.3,205.2 740.4,207.3 727,213C710.8,220 701.6,221.8 691.2,219.9ZM705.1,212.6C708.7,211.8 716.2,208.9 721.7,206.2C736.9,198.5 743.7,196 751.5,195.3C765.2,194.1 773.6,189 774.7,181.3C775.4,175.9 773.3,174.1 768.8,176.3C754.7,182.9 743.5,185.5 740.5,183C739.6,182.2 737.7,181.5 736.2,181.4C734.7,181.2 730.9,180.6 727.8,179.9C720.1,178.3 717.7,179.4 707,189.4C702.3,193.7 696.8,198.4 694.6,199.7C690.3,202.5 680.7,204 679.6,202.1C678.3,200.1 676.8,200.9 677.6,203.3C679,207.9 684.2,211.7 691,213.1C696.3,214.1 698,214.1 705.1,212.6ZM739.3,149.9C734.9,148.6 728.3,140.9 727.5,135.9C726,126.9 730.6,116.8 738.2,112.8C744.7,109.4 753.3,109.7 759,113.6C767,118.9 770.1,129.1 766.5,137.8C762.3,147.7 750.3,153.1 739.3,149.9ZM748.3,138.9C747.6,138.2 746.8,138.4 745.6,139.6C744.2,141 744.1,141.5 745.2,142.1C747,143.2 749.8,140.4 748.3,138.9Z"
   style="fill:rgb(88,91,112);fill-rule:nonzero;" />
</svg>
